# xmcd
# 
# Track frame offsets:
#     150
#     28189
#     54515
#     88280
#     108308
#     127966
#     151082
#     174643
#     192858
#     211867
# 
# Disc length: 3067
# 
# Revision: 2
# Processed by: cddbd v1.5.2PL0 Copyright (c) Steve Scherf et al.
# Submitted via: fre:ac v1.1beta1pre5
# 
DISCID=800bf90a
DTITLE=Björk - Volta
DYEAR=2007
DGENRE=Pop
TTITLE0=Earth Intruders
TTITLE1=Wanderlust
TTITLE2=The Dull Flame of Desire
TTITLE3=Innocence
TTITLE4=I See Who You Are
TTITLE5=Vertebrae By Vertebrae
TTITLE6=Pneumonia
TTITLE7=Hope
TTITLE8=Declare Independence
TTITLE9=My Juvenile
EXTD=
EXTT0=
EXTT1=
EXTT2=
EXTT3=
EXTT4=
EXTT5=
EXTT6=
EXTT7=
EXTT8=
EXTT9=
PLAYORDER=
